<mxfile host="app.diagrams.net" modified="2022-02-17T06:52:55.546Z" agent="5.0 (Windows NT 10.0; Win64; x64) AppleWebKit/537.36 (KHTML, like Gecko) Chrome/98.0.4758.82 Safari/537.36" etag="6XfuViHgGJvXYvCJQN_h" version="16.5.6" type="github">
  <diagram id="JbmUFRo4BeDCopr7MsnY" name="Page-1">
    <mxGraphModel dx="1887" dy="889" grid="1" gridSize="10" guides="1" tooltips="1" connect="1" arrows="1" fold="1" page="1" pageScale="1" pageWidth="827" pageHeight="1169" math="0" shadow="0">
      <root>
        <mxCell id="0" />
        <mxCell id="1" parent="0" />
        <mxCell id="-T_xP4MwQ5gFdrLfKur1-6" value="" style="edgeStyle=orthogonalEdgeStyle;shape=connector;rounded=1;orthogonalLoop=1;jettySize=auto;html=1;labelBackgroundColor=default;fontFamily=Helvetica;fontSize=15;fontColor=default;startArrow=none;endArrow=block;endFill=1;strokeColor=#5e5e5e;strokeWidth=1.5;" parent="1" source="-T_xP4MwQ5gFdrLfKur1-1" target="-T_xP4MwQ5gFdrLfKur1-2" edge="1">
          <mxGeometry relative="1" as="geometry" />
        </mxCell>
        <mxCell id="-T_xP4MwQ5gFdrLfKur1-1" value="" style="ellipse;fillColor=#000000;strokeColor=none;fontSize=15;" parent="1" vertex="1">
          <mxGeometry x="291" y="35" width="30" height="30" as="geometry" />
        </mxCell>
        <mxCell id="-T_xP4MwQ5gFdrLfKur1-102" style="edgeStyle=orthogonalEdgeStyle;shape=connector;rounded=1;orthogonalLoop=1;jettySize=auto;html=1;entryX=0.5;entryY=0;entryDx=0;entryDy=0;labelBackgroundColor=default;fontFamily=Helvetica;fontSize=15;fontColor=default;startArrow=none;endArrow=block;endFill=1;strokeColor=#5e5e5e;strokeWidth=1.5;" parent="1" source="-T_xP4MwQ5gFdrLfKur1-2" target="-T_xP4MwQ5gFdrLfKur1-101" edge="1">
          <mxGeometry relative="1" as="geometry" />
        </mxCell>
        <mxCell id="-T_xP4MwQ5gFdrLfKur1-2" value="&lt;div style=&quot;display: flex; justify-content: center; text-align: center; align-items: baseline; line-height: 1.25; margin-top: -2px; font-size: 15px;&quot;&gt;&lt;span style=&quot;color: rgb(0, 0, 0); font-size: 15px;&quot;&gt;&lt;font style=&quot;font-size: 15px;&quot;&gt;The host initiate the tournament&lt;/font&gt;&lt;/span&gt;&lt;/div&gt;" style="rounded=1;arcSize=20;whiteSpace=wrap;overflow=block;blockSpacing=1;html=1;fontSize=15;spacing=0;strokeColor=#5e5e5e;strokeOpacity=100;fillOpacity=100;fillColor=#ffffff;strokeWidth=2.3;" parent="1" vertex="1">
          <mxGeometry x="193" y="95" width="226" height="30" as="geometry" />
        </mxCell>
        <mxCell id="-T_xP4MwQ5gFdrLfKur1-105" value="" style="edgeStyle=orthogonalEdgeStyle;shape=connector;rounded=1;orthogonalLoop=1;jettySize=auto;html=1;labelBackgroundColor=default;fontFamily=Helvetica;fontSize=15;fontColor=default;startArrow=none;endArrow=block;endFill=1;strokeColor=#5e5e5e;strokeWidth=1.5;" parent="1" source="-T_xP4MwQ5gFdrLfKur1-7" target="-T_xP4MwQ5gFdrLfKur1-101" edge="1">
          <mxGeometry relative="1" as="geometry" />
        </mxCell>
        <mxCell id="-T_xP4MwQ5gFdrLfKur1-7" value="&lt;div style=&quot;display: flex; justify-content: center; text-align: center; align-items: baseline; font-size: 15px; line-height: 1.25; margin-top: -2px;&quot;&gt;&lt;span style=&quot;font-size: 15px;&quot;&gt;&lt;span style=&quot;font-size: 15px; color: rgb(0, 0, 0);&quot;&gt;Reset the game&lt;/span&gt;&lt;/span&gt;&lt;/div&gt;" style="rounded=1;arcSize=20;whiteSpace=wrap;overflow=block;blockSpacing=1;html=1;fontSize=15;spacing=0;strokeColor=#5e5e5e;strokeOpacity=100;fillOpacity=100;fillColor=#ffffff;strokeWidth=2.3;" parent="1" vertex="1">
          <mxGeometry x="422" y="155" width="146" height="30" as="geometry" />
        </mxCell>
        <mxCell id="-T_xP4MwQ5gFdrLfKur1-22" style="edgeStyle=orthogonalEdgeStyle;shape=connector;rounded=1;orthogonalLoop=1;jettySize=auto;html=1;entryX=1.32;entryY=0.51;entryDx=0;entryDy=0;entryPerimeter=0;labelBackgroundColor=default;fontFamily=Helvetica;fontSize=15;fontColor=default;startArrow=none;endArrow=block;endFill=1;strokeColor=#5e5e5e;strokeWidth=1.5;" parent="1" source="-T_xP4MwQ5gFdrLfKur1-9" target="-T_xP4MwQ5gFdrLfKur1-15" edge="1">
          <mxGeometry relative="1" as="geometry" />
        </mxCell>
        <mxCell id="-T_xP4MwQ5gFdrLfKur1-9" value="&lt;div style=&quot;display: flex; justify-content: center; text-align: center; align-items: baseline; font-size: 15px; line-height: 1.25; margin-top: -2px;&quot;&gt;&lt;span style=&quot;font-size: 15px;&quot;&gt;&lt;span style=&quot;font-size: 15px; color: rgb(0, 0, 0);&quot;&gt;Force bet of small blind and big blind player&lt;/span&gt;&lt;/span&gt;&lt;/div&gt;" style="rounded=1;arcSize=20;whiteSpace=wrap;overflow=block;blockSpacing=1;html=1;fontSize=15;spacing=0;strokeColor=#5e5e5e;strokeOpacity=100;fillOpacity=100;fillColor=#ffffff;strokeWidth=2.3;" parent="1" vertex="1">
          <mxGeometry x="40" y="240" width="251" height="50" as="geometry" />
        </mxCell>
        <mxCell id="-T_xP4MwQ5gFdrLfKur1-21" style="edgeStyle=orthogonalEdgeStyle;shape=connector;rounded=1;orthogonalLoop=1;jettySize=auto;html=1;entryX=1.32;entryY=0.511;entryDx=0;entryDy=0;entryPerimeter=0;labelBackgroundColor=default;fontFamily=Helvetica;fontSize=15;fontColor=default;startArrow=none;endArrow=block;endFill=1;strokeColor=#5e5e5e;strokeWidth=1.5;" parent="1" source="-T_xP4MwQ5gFdrLfKur1-10" target="-T_xP4MwQ5gFdrLfKur1-15" edge="1">
          <mxGeometry relative="1" as="geometry" />
        </mxCell>
        <mxCell id="-T_xP4MwQ5gFdrLfKur1-10" value="&lt;div style=&quot;display: flex; justify-content: center; text-align: center; align-items: baseline; font-size: 15px; line-height: 1.25; margin-top: -2px;&quot;&gt;&lt;span style=&quot;font-size: 15px;&quot;&gt;&lt;span style=&quot;font-size: 15px; color: rgb(0, 0, 0);&quot;&gt;2 Cards are dealt to each player&lt;/span&gt;&lt;/span&gt;&lt;/div&gt;" style="rounded=1;arcSize=20;whiteSpace=wrap;overflow=block;blockSpacing=1;html=1;fontSize=15;spacing=0;strokeColor=#5e5e5e;strokeOpacity=100;fillOpacity=100;fillColor=#ffffff;strokeWidth=2.3;" parent="1" vertex="1">
          <mxGeometry x="342" y="240" width="226" height="45" as="geometry" />
        </mxCell>
        <mxCell id="-T_xP4MwQ5gFdrLfKur1-13" style="edgeStyle=orthogonalEdgeStyle;shape=connector;rounded=1;orthogonalLoop=1;jettySize=auto;html=1;entryX=0.5;entryY=0;entryDx=0;entryDy=0;labelBackgroundColor=default;fontFamily=Helvetica;fontSize=15;fontColor=default;startArrow=none;endArrow=block;endFill=1;strokeColor=#5e5e5e;strokeWidth=1.5;" parent="1" source="-T_xP4MwQ5gFdrLfKur1-12" target="-T_xP4MwQ5gFdrLfKur1-9" edge="1">
          <mxGeometry relative="1" as="geometry" />
        </mxCell>
        <mxCell id="-T_xP4MwQ5gFdrLfKur1-14" style="edgeStyle=orthogonalEdgeStyle;shape=connector;rounded=1;orthogonalLoop=1;jettySize=auto;html=1;entryX=0.5;entryY=0;entryDx=0;entryDy=0;labelBackgroundColor=default;fontFamily=Helvetica;fontSize=15;fontColor=default;startArrow=none;endArrow=block;endFill=1;strokeColor=#5e5e5e;strokeWidth=1.5;" parent="1" source="-T_xP4MwQ5gFdrLfKur1-12" target="-T_xP4MwQ5gFdrLfKur1-10" edge="1">
          <mxGeometry relative="1" as="geometry" />
        </mxCell>
        <mxCell id="-T_xP4MwQ5gFdrLfKur1-12" value="" style="html=1;points=[];perimeter=orthogonalPerimeter;fillColor=#000000;strokeColor=none;fontFamily=Helvetica;fontSize=15;fontColor=default;rotation=-90;" parent="1" vertex="1">
          <mxGeometry x="303.5" y="-60" width="5" height="535" as="geometry" />
        </mxCell>
        <mxCell id="-T_xP4MwQ5gFdrLfKur1-25" style="edgeStyle=orthogonalEdgeStyle;shape=connector;rounded=1;orthogonalLoop=1;jettySize=auto;html=1;entryX=0.5;entryY=0;entryDx=0;entryDy=0;labelBackgroundColor=default;fontFamily=Helvetica;fontSize=15;fontColor=default;startArrow=none;endArrow=block;endFill=1;strokeColor=#5e5e5e;strokeWidth=1.5;" parent="1" source="-T_xP4MwQ5gFdrLfKur1-15" target="-T_xP4MwQ5gFdrLfKur1-23" edge="1">
          <mxGeometry relative="1" as="geometry" />
        </mxCell>
        <mxCell id="-T_xP4MwQ5gFdrLfKur1-15" value="" style="html=1;points=[];perimeter=orthogonalPerimeter;fillColor=#000000;strokeColor=none;fontFamily=Helvetica;fontSize=15;fontColor=default;rotation=-90;" parent="1" vertex="1">
          <mxGeometry x="301" y="65" width="5" height="535" as="geometry" />
        </mxCell>
        <mxCell id="-T_xP4MwQ5gFdrLfKur1-28" style="shape=connector;rounded=1;orthogonalLoop=1;jettySize=auto;html=1;labelBackgroundColor=default;fontFamily=Helvetica;fontSize=15;fontColor=default;startArrow=none;endArrow=block;endFill=1;strokeColor=#5e5e5e;strokeWidth=1.5;" parent="1" source="-T_xP4MwQ5gFdrLfKur1-23" target="-T_xP4MwQ5gFdrLfKur1-32" edge="1">
          <mxGeometry relative="1" as="geometry">
            <mxPoint x="303" y="485" as="targetPoint" />
          </mxGeometry>
        </mxCell>
        <mxCell id="-T_xP4MwQ5gFdrLfKur1-23" value="&lt;div style=&quot;display: flex; justify-content: center; text-align: center; align-items: baseline; font-size: 15px; line-height: 1.25; margin-top: -2px;&quot;&gt;&lt;span style=&quot;font-size: 15px;&quot;&gt;Players act in turn, starts from the UTG position, ends until all the player stay have bet the same amount of chips.&lt;br style=&quot;font-size: 15px;&quot;&gt;Big blind player has the right to raise on first round&amp;nbsp;&lt;/span&gt;&lt;/div&gt;" style="rounded=1;arcSize=20;whiteSpace=wrap;overflow=block;blockSpacing=1;html=1;fontSize=15;spacing=0;strokeColor=#5e5e5e;strokeOpacity=100;fillOpacity=100;fillColor=#ffffff;strokeWidth=2.3;" parent="1" vertex="1">
          <mxGeometry x="118.47" y="360" width="370" height="100" as="geometry" />
        </mxCell>
        <mxCell id="-T_xP4MwQ5gFdrLfKur1-24" value="Player can do the following actions according to the situation&lt;br&gt;&lt;div style=&quot;text-align: left&quot;&gt;&lt;span&gt;1. Check&lt;/span&gt;&lt;/div&gt;&lt;div style=&quot;text-align: left&quot;&gt;&lt;span&gt;2. Call&lt;/span&gt;&lt;/div&gt;&lt;div style=&quot;text-align: left&quot;&gt;&lt;span&gt;3. Raise&lt;/span&gt;&lt;/div&gt;&lt;div style=&quot;text-align: left&quot;&gt;&lt;span&gt;4. Fold&lt;/span&gt;&lt;/div&gt;&lt;div style=&quot;text-align: left&quot;&gt;&lt;span&gt;5. All in&lt;/span&gt;&lt;/div&gt;" style="shape=note2;boundedLbl=1;whiteSpace=wrap;html=1;size=25;verticalAlign=top;align=center;rounded=1;fontFamily=Helvetica;fontSize=12;fontColor=default;strokeColor=#5e5e5e;strokeWidth=2.3;fillColor=#ffffff;spacingLeft=24;spacingRight=24;" parent="1" vertex="1">
          <mxGeometry x="840" y="920" width="290" height="150" as="geometry" />
        </mxCell>
        <mxCell id="-T_xP4MwQ5gFdrLfKur1-37" style="edgeStyle=orthogonalEdgeStyle;shape=connector;rounded=1;orthogonalLoop=1;jettySize=auto;html=1;labelBackgroundColor=default;fontFamily=Helvetica;fontSize=15;fontColor=default;startArrow=none;endArrow=block;endFill=1;strokeColor=#5e5e5e;strokeWidth=1.5;entryX=0.5;entryY=0;entryDx=0;entryDy=0;" parent="1" source="-T_xP4MwQ5gFdrLfKur1-26" target="-T_xP4MwQ5gFdrLfKur1-38" edge="1">
          <mxGeometry relative="1" as="geometry">
            <mxPoint x="306.0050000000001" y="670" as="targetPoint" />
          </mxGeometry>
        </mxCell>
        <mxCell id="-T_xP4MwQ5gFdrLfKur1-26" value="Flop" style="rounded=1;arcSize=20;whiteSpace=wrap;overflow=block;blockSpacing=1;html=1;fontSize=15;spacing=0;strokeColor=#5e5e5e;strokeOpacity=100;fillOpacity=100;fillColor=#ffffff;strokeWidth=2.3;" parent="1" vertex="1">
          <mxGeometry x="273.09000000000003" y="590" width="60.75" height="30" as="geometry" />
        </mxCell>
        <mxCell id="-T_xP4MwQ5gFdrLfKur1-30" value="Only one player still hold his hand&amp;nbsp;&lt;br style=&quot;font-size: 15px;&quot;&gt;and no player went all in" style="edgeStyle=orthogonalEdgeStyle;shape=connector;rounded=1;orthogonalLoop=1;jettySize=auto;html=1;labelBackgroundColor=default;fontFamily=Helvetica;fontSize=15;fontColor=default;startArrow=none;endArrow=block;endFill=1;strokeColor=#5e5e5e;strokeWidth=1.5;entryX=0;entryY=0.5;entryDx=0;entryDy=0;" parent="1" source="-T_xP4MwQ5gFdrLfKur1-27" target="-T_xP4MwQ5gFdrLfKur1-72" edge="1">
          <mxGeometry x="-0.0299" relative="1" as="geometry">
            <mxPoint x="625" y="642.7586206896551" as="targetPoint" />
            <mxPoint as="offset" />
          </mxGeometry>
        </mxCell>
        <mxCell id="-T_xP4MwQ5gFdrLfKur1-79" style="edgeStyle=orthogonalEdgeStyle;shape=connector;rounded=1;orthogonalLoop=1;jettySize=auto;html=1;entryX=0.5;entryY=0;entryDx=0;entryDy=0;labelBackgroundColor=default;fontFamily=Helvetica;fontSize=15;fontColor=default;startArrow=none;endArrow=block;endFill=1;strokeColor=#5e5e5e;strokeWidth=1.5;" parent="1" source="-T_xP4MwQ5gFdrLfKur1-27" target="-T_xP4MwQ5gFdrLfKur1-26" edge="1">
          <mxGeometry relative="1" as="geometry" />
        </mxCell>
        <mxCell id="-T_xP4MwQ5gFdrLfKur1-27" value="" style="rhombus;rounded=1;fontFamily=Helvetica;fontSize=15;fontColor=default;strokeColor=#5e5e5e;strokeWidth=2.3;fillColor=#ffffff;html=1;" parent="1" vertex="1">
          <mxGeometry x="288.49" y="545" width="30" height="30" as="geometry" />
        </mxCell>
        <mxCell id="-T_xP4MwQ5gFdrLfKur1-34" style="edgeStyle=orthogonalEdgeStyle;shape=connector;rounded=1;orthogonalLoop=1;jettySize=auto;html=1;entryX=1;entryY=0.5;entryDx=0;entryDy=0;labelBackgroundColor=default;fontFamily=Helvetica;fontSize=15;fontColor=default;startArrow=none;endArrow=block;endFill=1;strokeColor=#5e5e5e;strokeWidth=1.5;exitX=0.5;exitY=0;exitDx=0;exitDy=0;" parent="1" source="-T_xP4MwQ5gFdrLfKur1-31" target="-T_xP4MwQ5gFdrLfKur1-7" edge="1">
          <mxGeometry relative="1" as="geometry" />
        </mxCell>
        <mxCell id="-T_xP4MwQ5gFdrLfKur1-31" value="&lt;div style=&quot;display: flex; justify-content: center; text-align: center; align-items: baseline; font-size: 15px; line-height: 1.25; margin-top: -2px;&quot;&gt;&lt;span style=&quot;font-size: 15px;&quot;&gt;The player left behind get all the chips in the pool&lt;/span&gt;&lt;/div&gt;" style="rounded=1;arcSize=20;whiteSpace=wrap;overflow=block;blockSpacing=1;html=1;fontSize=15;spacing=0;strokeColor=#5e5e5e;strokeOpacity=100;fillOpacity=100;fillColor=#ffffff;strokeWidth=2.3;" parent="1" vertex="1">
          <mxGeometry x="549.5" y="347.5" width="209" height="65" as="geometry" />
        </mxCell>
        <mxCell id="-T_xP4MwQ5gFdrLfKur1-33" style="shape=connector;rounded=1;orthogonalLoop=1;jettySize=auto;html=1;entryX=0.5;entryY=0;entryDx=0;entryDy=0;labelBackgroundColor=default;fontFamily=Helvetica;fontSize=15;fontColor=default;startArrow=none;endArrow=block;endFill=1;strokeColor=#5e5e5e;strokeWidth=1.5;" parent="1" source="-T_xP4MwQ5gFdrLfKur1-32" target="-T_xP4MwQ5gFdrLfKur1-27" edge="1">
          <mxGeometry relative="1" as="geometry" />
        </mxCell>
        <mxCell id="-T_xP4MwQ5gFdrLfKur1-32" value="Pool splitting" style="rounded=1;arcSize=20;whiteSpace=wrap;overflow=block;blockSpacing=1;html=1;fontSize=15;spacing=0;strokeColor=#5e5e5e;strokeOpacity=100;fillOpacity=100;fillColor=#ffffff;strokeWidth=2.3;" parent="1" vertex="1">
          <mxGeometry x="158.75" y="490" width="289.5" height="30" as="geometry" />
        </mxCell>
        <mxCell id="-T_xP4MwQ5gFdrLfKur1-82" style="edgeStyle=orthogonalEdgeStyle;shape=connector;rounded=1;orthogonalLoop=1;jettySize=auto;html=1;entryX=0.5;entryY=0;entryDx=0;entryDy=0;labelBackgroundColor=default;fontFamily=Helvetica;fontSize=15;fontColor=default;startArrow=none;endArrow=block;endFill=1;strokeColor=#5e5e5e;strokeWidth=1.5;" parent="1" source="-T_xP4MwQ5gFdrLfKur1-38" target="-T_xP4MwQ5gFdrLfKur1-39" edge="1">
          <mxGeometry relative="1" as="geometry" />
        </mxCell>
        <mxCell id="-T_xP4MwQ5gFdrLfKur1-38" value="&lt;div style=&quot;display: flex; justify-content: center; text-align: center; align-items: baseline; font-size: 15px; line-height: 1.25; margin-top: -2px;&quot;&gt;&lt;span style=&quot;font-size: 15px;&quot;&gt;Betting round, starts from small blind, ends until&amp;nbsp;&lt;span style=&quot;font-size: 15px;&quot;&gt;all the players stay have bet the same amount of chips, skips for the player who have folded or went all in&lt;/span&gt;&lt;/span&gt;&lt;/div&gt;" style="rounded=1;arcSize=20;whiteSpace=wrap;overflow=block;blockSpacing=1;html=1;fontSize=15;spacing=0;strokeColor=#5e5e5e;strokeOpacity=100;fillOpacity=100;fillColor=#ffffff;strokeWidth=2.3;" parent="1" vertex="1">
          <mxGeometry x="123.46" y="650" width="360" height="90" as="geometry" />
        </mxCell>
        <mxCell id="-T_xP4MwQ5gFdrLfKur1-85" style="edgeStyle=orthogonalEdgeStyle;shape=connector;rounded=1;orthogonalLoop=1;jettySize=auto;html=1;entryX=0.5;entryY=0;entryDx=0;entryDy=0;labelBackgroundColor=default;fontFamily=Helvetica;fontSize=15;fontColor=default;startArrow=none;endArrow=block;endFill=1;strokeColor=#5e5e5e;strokeWidth=1.5;" parent="1" source="-T_xP4MwQ5gFdrLfKur1-39" target="-T_xP4MwQ5gFdrLfKur1-40" edge="1">
          <mxGeometry relative="1" as="geometry" />
        </mxCell>
        <mxCell id="-T_xP4MwQ5gFdrLfKur1-39" value="Pool splitting" style="rounded=1;arcSize=20;whiteSpace=wrap;overflow=block;blockSpacing=1;html=1;fontSize=15;spacing=0;strokeColor=#5e5e5e;strokeOpacity=100;fillOpacity=100;fillColor=#ffffff;strokeWidth=2.3;" parent="1" vertex="1">
          <mxGeometry x="158.74999999999997" y="760" width="289.5" height="30" as="geometry" />
        </mxCell>
        <mxCell id="-T_xP4MwQ5gFdrLfKur1-86" style="edgeStyle=orthogonalEdgeStyle;shape=connector;rounded=1;orthogonalLoop=1;jettySize=auto;html=1;entryX=0.5;entryY=0;entryDx=0;entryDy=0;labelBackgroundColor=default;fontFamily=Helvetica;fontSize=15;fontColor=default;startArrow=none;endArrow=block;endFill=1;strokeColor=#5e5e5e;strokeWidth=1.5;" parent="1" source="-T_xP4MwQ5gFdrLfKur1-40" target="-T_xP4MwQ5gFdrLfKur1-42" edge="1">
          <mxGeometry relative="1" as="geometry" />
        </mxCell>
        <mxCell id="-T_xP4MwQ5gFdrLfKur1-40" value="" style="rhombus;rounded=1;fontFamily=Helvetica;fontSize=15;fontColor=default;strokeColor=#5e5e5e;strokeWidth=2.3;fillColor=#ffffff;html=1;" parent="1" vertex="1">
          <mxGeometry x="288.49000000000007" y="820" width="30" height="30" as="geometry" />
        </mxCell>
        <mxCell id="-T_xP4MwQ5gFdrLfKur1-41" style="edgeStyle=orthogonalEdgeStyle;shape=connector;rounded=1;orthogonalLoop=1;jettySize=auto;html=1;labelBackgroundColor=default;fontFamily=Helvetica;fontSize=15;fontColor=default;startArrow=none;endArrow=block;endFill=1;strokeColor=#5e5e5e;strokeWidth=1.5;entryX=0.5;entryY=0;entryDx=0;entryDy=0;" parent="1" source="-T_xP4MwQ5gFdrLfKur1-42" target="-T_xP4MwQ5gFdrLfKur1-43" edge="1">
          <mxGeometry relative="1" as="geometry">
            <mxPoint x="308.5250000000001" y="900" as="targetPoint" />
          </mxGeometry>
        </mxCell>
        <mxCell id="-T_xP4MwQ5gFdrLfKur1-42" value="Turn" style="rounded=1;arcSize=20;whiteSpace=wrap;overflow=block;blockSpacing=1;html=1;fontSize=15;spacing=0;strokeColor=#5e5e5e;strokeOpacity=100;fillOpacity=100;fillColor=#ffffff;strokeWidth=2.3;" parent="1" vertex="1">
          <mxGeometry x="273.1" y="870" width="60.75" height="30" as="geometry" />
        </mxCell>
        <mxCell id="-T_xP4MwQ5gFdrLfKur1-87" style="edgeStyle=orthogonalEdgeStyle;shape=connector;rounded=1;orthogonalLoop=1;jettySize=auto;html=1;entryX=0.5;entryY=0;entryDx=0;entryDy=0;labelBackgroundColor=default;fontFamily=Helvetica;fontSize=15;fontColor=default;startArrow=none;endArrow=block;endFill=1;strokeColor=#5e5e5e;strokeWidth=1.5;" parent="1" source="-T_xP4MwQ5gFdrLfKur1-43" target="-T_xP4MwQ5gFdrLfKur1-44" edge="1">
          <mxGeometry relative="1" as="geometry" />
        </mxCell>
        <mxCell id="-T_xP4MwQ5gFdrLfKur1-43" value="&lt;div style=&quot;display: flex; justify-content: center; text-align: center; align-items: baseline; font-size: 15px; line-height: 1.25; margin-top: -2px;&quot;&gt;&lt;span style=&quot;font-size: 15px;&quot;&gt;Betting round, starts from small blind, ends until&amp;nbsp;&lt;span style=&quot;font-size: 15px;&quot;&gt;all the players stay have bet the same amount of chips.&lt;/span&gt;&lt;/span&gt;&lt;/div&gt;" style="rounded=1;arcSize=20;whiteSpace=wrap;overflow=block;blockSpacing=1;html=1;fontSize=15;spacing=0;strokeColor=#5e5e5e;strokeOpacity=100;fillOpacity=100;fillColor=#ffffff;strokeWidth=2.3;" parent="1" vertex="1">
          <mxGeometry x="143.5" y="920" width="320" height="80" as="geometry" />
        </mxCell>
        <mxCell id="-T_xP4MwQ5gFdrLfKur1-89" style="edgeStyle=orthogonalEdgeStyle;shape=connector;rounded=1;orthogonalLoop=1;jettySize=auto;html=1;entryX=0.5;entryY=0;entryDx=0;entryDy=0;labelBackgroundColor=default;fontFamily=Helvetica;fontSize=12;fontColor=default;startArrow=none;endArrow=block;endFill=1;strokeColor=#5e5e5e;strokeWidth=1.5;exitX=0.5;exitY=1;exitDx=0;exitDy=0;" parent="1" source="-T_xP4MwQ5gFdrLfKur1-44" target="-T_xP4MwQ5gFdrLfKur1-46" edge="1">
          <mxGeometry relative="1" as="geometry" />
        </mxCell>
        <mxCell id="-T_xP4MwQ5gFdrLfKur1-44" value="Pool splitting" style="rounded=1;arcSize=20;whiteSpace=wrap;overflow=block;blockSpacing=1;html=1;fontSize=15;spacing=0;strokeColor=#5e5e5e;strokeOpacity=100;fillOpacity=100;fillColor=#ffffff;strokeWidth=2.3;" parent="1" vertex="1">
          <mxGeometry x="158.72000000000003" y="1030" width="289.5" height="30" as="geometry" />
        </mxCell>
        <mxCell id="-T_xP4MwQ5gFdrLfKur1-45" style="edgeStyle=orthogonalEdgeStyle;shape=connector;rounded=1;orthogonalLoop=1;jettySize=auto;html=1;labelBackgroundColor=default;fontFamily=Helvetica;fontSize=15;fontColor=default;startArrow=none;endArrow=block;endFill=1;strokeColor=#5e5e5e;strokeWidth=1.5;" parent="1" source="-T_xP4MwQ5gFdrLfKur1-46" edge="1">
          <mxGeometry relative="1" as="geometry">
            <mxPoint x="1134.9950000000001" y="140" as="targetPoint" />
          </mxGeometry>
        </mxCell>
        <mxCell id="-T_xP4MwQ5gFdrLfKur1-46" value="River" style="rounded=1;arcSize=20;whiteSpace=wrap;overflow=block;blockSpacing=1;html=1;fontSize=15;spacing=0;strokeColor=#5e5e5e;strokeOpacity=100;fillOpacity=100;fillColor=#ffffff;strokeWidth=2.3;" parent="1" vertex="1">
          <mxGeometry x="1104.62" y="80" width="60.75" height="30" as="geometry" />
        </mxCell>
        <mxCell id="-T_xP4MwQ5gFdrLfKur1-90" style="edgeStyle=orthogonalEdgeStyle;shape=connector;rounded=1;orthogonalLoop=1;jettySize=auto;html=1;entryX=0.5;entryY=0;entryDx=0;entryDy=0;labelBackgroundColor=default;fontFamily=Helvetica;fontSize=15;fontColor=default;startArrow=none;endArrow=block;endFill=1;strokeColor=#5e5e5e;strokeWidth=1.5;" parent="1" source="-T_xP4MwQ5gFdrLfKur1-47" target="-T_xP4MwQ5gFdrLfKur1-48" edge="1">
          <mxGeometry relative="1" as="geometry" />
        </mxCell>
        <mxCell id="-T_xP4MwQ5gFdrLfKur1-47" value="&lt;div style=&quot;display: flex; justify-content: center; text-align: center; align-items: baseline; font-size: 15px; line-height: 1.25; margin-top: -2px;&quot;&gt;&lt;span style=&quot;font-size: 15px;&quot;&gt;Betting round, starts from small blind, ends until&amp;nbsp;&lt;span style=&quot;font-size: 15px;&quot;&gt;all the players stay have bet the same amount of chips.&lt;/span&gt;&lt;/span&gt;&lt;/div&gt;" style="rounded=1;arcSize=20;whiteSpace=wrap;overflow=block;blockSpacing=1;html=1;fontSize=15;spacing=0;strokeColor=#5e5e5e;strokeOpacity=100;fillOpacity=100;fillColor=#ffffff;strokeWidth=2.3;" parent="1" vertex="1">
          <mxGeometry x="980.13" y="140" width="309.75" height="60" as="geometry" />
        </mxCell>
        <mxCell id="-T_xP4MwQ5gFdrLfKur1-98" style="edgeStyle=orthogonalEdgeStyle;shape=connector;rounded=1;orthogonalLoop=1;jettySize=auto;html=1;entryX=0.5;entryY=0;entryDx=0;entryDy=0;labelBackgroundColor=default;fontFamily=Helvetica;fontSize=15;fontColor=default;startArrow=none;endArrow=block;endFill=1;strokeColor=#5e5e5e;strokeWidth=1.5;" parent="1" source="-T_xP4MwQ5gFdrLfKur1-48" target="-T_xP4MwQ5gFdrLfKur1-95" edge="1">
          <mxGeometry relative="1" as="geometry" />
        </mxCell>
        <mxCell id="-T_xP4MwQ5gFdrLfKur1-48" value="Pool splitting" style="rounded=1;arcSize=20;whiteSpace=wrap;overflow=block;blockSpacing=1;html=1;fontSize=15;spacing=0;strokeColor=#5e5e5e;strokeOpacity=100;fillOpacity=100;fillColor=#ffffff;strokeWidth=2.3;" parent="1" vertex="1">
          <mxGeometry x="990.24" y="240" width="289.5" height="30" as="geometry" />
        </mxCell>
        <mxCell id="-T_xP4MwQ5gFdrLfKur1-92" style="edgeStyle=orthogonalEdgeStyle;shape=connector;rounded=1;orthogonalLoop=1;jettySize=auto;html=1;entryX=0.5;entryY=0;entryDx=0;entryDy=0;labelBackgroundColor=default;fontFamily=Helvetica;fontSize=15;fontColor=default;startArrow=none;endArrow=block;endFill=1;strokeColor=#5e5e5e;strokeWidth=1.5;" parent="1" source="-T_xP4MwQ5gFdrLfKur1-49" target="-T_xP4MwQ5gFdrLfKur1-50" edge="1">
          <mxGeometry relative="1" as="geometry" />
        </mxCell>
        <mxCell id="-T_xP4MwQ5gFdrLfKur1-49" value="Show hand" style="rounded=1;arcSize=20;whiteSpace=wrap;overflow=block;blockSpacing=1;html=1;fontSize=15;spacing=0;strokeColor=#5e5e5e;strokeOpacity=100;fillOpacity=100;fillColor=#ffffff;strokeWidth=2.3;" parent="1" vertex="1">
          <mxGeometry x="990.24" y="382.5" width="289.5" height="30" as="geometry" />
        </mxCell>
        <mxCell id="-T_xP4MwQ5gFdrLfKur1-56" value="" style="edgeStyle=none;shape=connector;rounded=1;orthogonalLoop=1;jettySize=auto;html=1;labelBackgroundColor=default;fontFamily=Helvetica;fontSize=15;fontColor=default;startArrow=none;endArrow=block;endFill=1;strokeColor=#5e5e5e;strokeWidth=1.5;entryX=0.5;entryY=0;entryDx=0;entryDy=0;" parent="1" source="-T_xP4MwQ5gFdrLfKur1-50" target="-T_xP4MwQ5gFdrLfKur1-68" edge="1">
          <mxGeometry relative="1" as="geometry" />
        </mxCell>
        <mxCell id="-T_xP4MwQ5gFdrLfKur1-50" value="Reallocating the chips from the pool to the winner(s)" style="rounded=1;arcSize=20;whiteSpace=wrap;overflow=block;blockSpacing=1;html=1;fontSize=15;spacing=0;strokeColor=#5e5e5e;strokeOpacity=100;fillOpacity=100;fillColor=#ffffff;strokeWidth=2.3;" parent="1" vertex="1">
          <mxGeometry x="990.24" y="440" width="289.5" height="60" as="geometry" />
        </mxCell>
        <mxCell id="-T_xP4MwQ5gFdrLfKur1-66" style="edgeStyle=orthogonalEdgeStyle;shape=connector;rounded=1;orthogonalLoop=1;jettySize=auto;html=1;entryX=0;entryY=0.5;entryDx=0;entryDy=0;labelBackgroundColor=default;fontFamily=Helvetica;fontSize=15;fontColor=default;startArrow=none;endArrow=block;endFill=1;strokeColor=#5e5e5e;strokeWidth=1.5;" parent="1" source="-T_xP4MwQ5gFdrLfKur1-51" target="-T_xP4MwQ5gFdrLfKur1-65" edge="1">
          <mxGeometry relative="1" as="geometry" />
        </mxCell>
        <mxCell id="-T_xP4MwQ5gFdrLfKur1-51" value="Blind raising" style="rounded=1;arcSize=20;whiteSpace=wrap;overflow=block;blockSpacing=1;html=1;fontSize=15;spacing=0;strokeColor=#5e5e5e;strokeOpacity=100;fillOpacity=100;fillColor=#ffffff;strokeWidth=2.3;" parent="1" vertex="1">
          <mxGeometry x="1099.9899999999998" y="790" width="107.48" height="30" as="geometry" />
        </mxCell>
        <mxCell id="-T_xP4MwQ5gFdrLfKur1-63" style="edgeStyle=orthogonalEdgeStyle;shape=connector;rounded=1;orthogonalLoop=1;jettySize=auto;html=1;labelBackgroundColor=default;fontFamily=Helvetica;fontSize=15;fontColor=default;startArrow=none;endArrow=block;endFill=1;strokeColor=#5e5e5e;strokeWidth=1.5;entryX=0.5;entryY=0;entryDx=0;entryDy=0;" parent="1" source="-T_xP4MwQ5gFdrLfKur1-52" target="-T_xP4MwQ5gFdrLfKur1-64" edge="1">
          <mxGeometry relative="1" as="geometry">
            <mxPoint x="1046.25" y="770" as="targetPoint" />
          </mxGeometry>
        </mxCell>
        <mxCell id="-T_xP4MwQ5gFdrLfKur1-52" value="End game" style="rounded=1;arcSize=20;whiteSpace=wrap;overflow=block;blockSpacing=1;html=1;fontSize=15;spacing=0;strokeColor=#5e5e5e;strokeOpacity=100;fillOpacity=100;fillColor=#ffffff;strokeWidth=2.3;" parent="1" vertex="1">
          <mxGeometry x="992.51" y="690" width="107.48" height="30" as="geometry" />
        </mxCell>
        <mxCell id="-T_xP4MwQ5gFdrLfKur1-57" value="only one player &lt;br style=&quot;font-size: 15px;&quot;&gt;still in the game" style="edgeStyle=orthogonalEdgeStyle;shape=connector;rounded=1;orthogonalLoop=1;jettySize=auto;html=1;entryX=0.5;entryY=0;entryDx=0;entryDy=0;labelBackgroundColor=default;fontFamily=Helvetica;fontSize=15;fontColor=default;startArrow=none;endArrow=block;endFill=1;strokeColor=#5e5e5e;strokeWidth=1.5;" parent="1" source="-T_xP4MwQ5gFdrLfKur1-54" target="-T_xP4MwQ5gFdrLfKur1-52" edge="1">
          <mxGeometry x="0.4232" relative="1" as="geometry">
            <mxPoint as="offset" />
          </mxGeometry>
        </mxCell>
        <mxCell id="-T_xP4MwQ5gFdrLfKur1-58" style="edgeStyle=orthogonalEdgeStyle;shape=connector;rounded=1;orthogonalLoop=1;jettySize=auto;html=1;labelBackgroundColor=default;fontFamily=Helvetica;fontSize=15;fontColor=default;startArrow=none;endArrow=block;endFill=1;strokeColor=#5e5e5e;strokeWidth=1.5;entryX=0.5;entryY=0;entryDx=0;entryDy=0;" parent="1" source="-T_xP4MwQ5gFdrLfKur1-54" target="-T_xP4MwQ5gFdrLfKur1-59" edge="1">
          <mxGeometry relative="1" as="geometry">
            <mxPoint x="1221" y="690" as="targetPoint" />
          </mxGeometry>
        </mxCell>
        <mxCell id="-T_xP4MwQ5gFdrLfKur1-54" value="" style="rhombus;rounded=1;fontFamily=Helvetica;fontSize=15;fontColor=default;strokeColor=#5e5e5e;strokeWidth=2.3;fillColor=#ffffff;html=1;" parent="1" vertex="1">
          <mxGeometry x="1120" y="610" width="30" height="30" as="geometry" />
        </mxCell>
        <mxCell id="-T_xP4MwQ5gFdrLfKur1-60" value="Times up for&amp;nbsp;&lt;br style=&quot;font-size: 15px;&quot;&gt;blind raising" style="edgeStyle=orthogonalEdgeStyle;shape=connector;rounded=1;orthogonalLoop=1;jettySize=auto;html=1;labelBackgroundColor=default;fontFamily=Helvetica;fontSize=15;fontColor=default;startArrow=none;endArrow=block;endFill=1;strokeColor=#5e5e5e;strokeWidth=1.5;exitX=0;exitY=0.5;exitDx=0;exitDy=0;" parent="1" source="-T_xP4MwQ5gFdrLfKur1-59" target="-T_xP4MwQ5gFdrLfKur1-51" edge="1">
          <mxGeometry x="0.34" relative="1" as="geometry">
            <mxPoint as="offset" />
          </mxGeometry>
        </mxCell>
        <mxCell id="-T_xP4MwQ5gFdrLfKur1-61" style="edgeStyle=orthogonalEdgeStyle;shape=connector;rounded=1;orthogonalLoop=1;jettySize=auto;html=1;labelBackgroundColor=default;fontFamily=Helvetica;fontSize=15;fontColor=default;startArrow=none;endArrow=block;endFill=1;strokeColor=#5e5e5e;strokeWidth=1.5;entryX=1;entryY=0.5;entryDx=0;entryDy=0;" parent="1" target="-T_xP4MwQ5gFdrLfKur1-65" edge="1">
          <mxGeometry relative="1" as="geometry">
            <mxPoint x="1280" y="850" as="targetPoint" />
            <mxPoint x="1220" y="715" as="sourcePoint" />
            <Array as="points">
              <mxPoint x="1300" y="715" />
              <mxPoint x="1300" y="855" />
            </Array>
          </mxGeometry>
        </mxCell>
        <mxCell id="-T_xP4MwQ5gFdrLfKur1-59" value="" style="rhombus;rounded=1;fontFamily=Helvetica;fontSize=15;fontColor=default;strokeColor=#5e5e5e;strokeWidth=2.3;fillColor=#ffffff;html=1;" parent="1" vertex="1">
          <mxGeometry x="1200" y="700" width="30" height="30" as="geometry" />
        </mxCell>
        <mxCell id="-T_xP4MwQ5gFdrLfKur1-64" value="" style="ellipse;html=1;shape=endState;fillColor=#000000;strokeColor=#000000;rounded=1;fontFamily=Helvetica;fontSize=15;fontColor=default;" parent="1" vertex="1">
          <mxGeometry x="1031" y="780" width="30" height="30" as="geometry" />
        </mxCell>
        <mxCell id="-T_xP4MwQ5gFdrLfKur1-100" style="edgeStyle=orthogonalEdgeStyle;shape=connector;rounded=1;orthogonalLoop=1;jettySize=auto;html=1;entryX=1;entryY=0.5;entryDx=0;entryDy=0;labelBackgroundColor=default;fontFamily=Helvetica;fontSize=12;fontColor=default;startArrow=none;endArrow=block;endFill=1;strokeColor=#5e5e5e;strokeWidth=1.5;" parent="1" source="-T_xP4MwQ5gFdrLfKur1-65" target="-T_xP4MwQ5gFdrLfKur1-7" edge="1">
          <mxGeometry relative="1" as="geometry">
            <Array as="points">
              <mxPoint x="1215" y="890" />
              <mxPoint x="850" y="890" />
              <mxPoint x="850" y="170" />
            </Array>
          </mxGeometry>
        </mxCell>
        <mxCell id="-T_xP4MwQ5gFdrLfKur1-65" value="" style="rhombus;rounded=1;fontFamily=Helvetica;fontSize=15;fontColor=default;strokeColor=#5e5e5e;strokeWidth=2.3;fillColor=#ffffff;html=1;" parent="1" vertex="1">
          <mxGeometry x="1200" y="840" width="30" height="30" as="geometry" />
        </mxCell>
        <mxCell id="-T_xP4MwQ5gFdrLfKur1-69" style="edgeStyle=orthogonalEdgeStyle;shape=connector;rounded=1;orthogonalLoop=1;jettySize=auto;html=1;labelBackgroundColor=default;fontFamily=Helvetica;fontSize=15;fontColor=default;startArrow=none;endArrow=block;endFill=1;strokeColor=#5e5e5e;strokeWidth=1.5;" parent="1" source="-T_xP4MwQ5gFdrLfKur1-68" target="-T_xP4MwQ5gFdrLfKur1-54" edge="1">
          <mxGeometry relative="1" as="geometry" />
        </mxCell>
        <mxCell id="-T_xP4MwQ5gFdrLfKur1-68" value="Eliminate the player who does not have any chips" style="rounded=1;arcSize=20;whiteSpace=wrap;overflow=block;blockSpacing=1;html=1;fontSize=15;spacing=0;strokeColor=#5e5e5e;strokeOpacity=100;fillOpacity=100;fillColor=#ffffff;strokeWidth=2.3;" parent="1" vertex="1">
          <mxGeometry x="990.25" y="530" width="289.5" height="60" as="geometry" />
        </mxCell>
        <mxCell id="-T_xP4MwQ5gFdrLfKur1-73" style="edgeStyle=orthogonalEdgeStyle;shape=connector;rounded=1;orthogonalLoop=1;jettySize=auto;html=1;labelBackgroundColor=default;fontFamily=Helvetica;fontSize=15;fontColor=default;startArrow=none;endArrow=block;endFill=1;strokeColor=#5e5e5e;strokeWidth=1.5;" parent="1" source="-T_xP4MwQ5gFdrLfKur1-72" target="-T_xP4MwQ5gFdrLfKur1-31" edge="1">
          <mxGeometry relative="1" as="geometry" />
        </mxCell>
        <mxCell id="-T_xP4MwQ5gFdrLfKur1-72" value="" style="rhombus;rounded=1;fontFamily=Helvetica;fontSize=15;fontColor=default;strokeColor=#5e5e5e;strokeWidth=2.3;fillColor=#ffffff;html=1;" parent="1" vertex="1">
          <mxGeometry x="639" y="545" width="30" height="30" as="geometry" />
        </mxCell>
        <mxCell id="-T_xP4MwQ5gFdrLfKur1-88" value="Only one player still hold his hand&amp;nbsp;&lt;br style=&quot;font-size: 15px;&quot;&gt;and no player went all in" style="edgeStyle=orthogonalEdgeStyle;shape=connector;rounded=1;orthogonalLoop=1;jettySize=auto;html=1;labelBackgroundColor=default;fontFamily=Helvetica;fontSize=15;fontColor=default;startArrow=none;endArrow=block;endFill=1;strokeColor=#5e5e5e;strokeWidth=1.5;entryX=0.5;entryY=1;entryDx=0;entryDy=0;exitX=1;exitY=0.5;exitDx=0;exitDy=0;" parent="1" source="-T_xP4MwQ5gFdrLfKur1-40" target="-T_xP4MwQ5gFdrLfKur1-72" edge="1">
          <mxGeometry x="-0.4995" relative="1" as="geometry">
            <mxPoint x="580.26" y="834.63" as="targetPoint" />
            <mxPoint x="329.75" y="834.63" as="sourcePoint" />
            <mxPoint as="offset" />
          </mxGeometry>
        </mxCell>
        <mxCell id="-T_xP4MwQ5gFdrLfKur1-94" value="Only one player still hold his hand&amp;nbsp;&lt;br&gt;and no player went all in" style="edgeStyle=orthogonalEdgeStyle;shape=connector;rounded=1;orthogonalLoop=1;jettySize=auto;html=1;labelBackgroundColor=default;fontFamily=Helvetica;fontSize=12;fontColor=default;startArrow=none;endArrow=block;endFill=1;strokeColor=#5e5e5e;strokeWidth=1.5;entryX=1;entryY=0.5;entryDx=0;entryDy=0;" parent="1" source="-T_xP4MwQ5gFdrLfKur1-95" target="-T_xP4MwQ5gFdrLfKur1-72" edge="1">
          <mxGeometry x="-0.6262" relative="1" as="geometry">
            <mxPoint x="1557.98" y="310" as="targetPoint" />
            <mxPoint x="1" as="offset" />
          </mxGeometry>
        </mxCell>
        <mxCell id="-T_xP4MwQ5gFdrLfKur1-99" style="edgeStyle=orthogonalEdgeStyle;shape=connector;rounded=1;orthogonalLoop=1;jettySize=auto;html=1;entryX=0.5;entryY=0;entryDx=0;entryDy=0;labelBackgroundColor=default;fontFamily=Helvetica;fontSize=15;fontColor=default;startArrow=none;endArrow=block;endFill=1;strokeColor=#5e5e5e;strokeWidth=1.5;" parent="1" source="-T_xP4MwQ5gFdrLfKur1-95" target="-T_xP4MwQ5gFdrLfKur1-49" edge="1">
          <mxGeometry relative="1" as="geometry" />
        </mxCell>
        <mxCell id="-T_xP4MwQ5gFdrLfKur1-95" value="" style="rhombus;rounded=1;fontFamily=Helvetica;fontSize=15;fontColor=default;strokeColor=#5e5e5e;strokeWidth=2.3;fillColor=#ffffff;html=1;" parent="1" vertex="1">
          <mxGeometry x="1120.01" y="300" width="30" height="30" as="geometry" />
        </mxCell>
        <mxCell id="-T_xP4MwQ5gFdrLfKur1-104" style="edgeStyle=orthogonalEdgeStyle;shape=connector;rounded=1;orthogonalLoop=1;jettySize=auto;html=1;entryX=0.214;entryY=0.5;entryDx=0;entryDy=0;entryPerimeter=0;labelBackgroundColor=default;fontFamily=Helvetica;fontSize=15;fontColor=default;startArrow=none;endArrow=block;endFill=1;strokeColor=#5e5e5e;strokeWidth=1.5;" parent="1" source="-T_xP4MwQ5gFdrLfKur1-101" target="-T_xP4MwQ5gFdrLfKur1-12" edge="1">
          <mxGeometry relative="1" as="geometry" />
        </mxCell>
        <mxCell id="-T_xP4MwQ5gFdrLfKur1-101" value="&lt;div style=&quot;display: flex; justify-content: center; text-align: center; align-items: baseline; font-size: 15px; line-height: 1.25; margin-top: -2px;&quot;&gt;&lt;span style=&quot;font-size: 15px;&quot;&gt;&lt;span style=&quot;font-size: 15px; color: rgb(0, 0, 0);&quot;&gt;Shuffle the deck&lt;/span&gt;&lt;/span&gt;&lt;/div&gt;" style="rounded=1;arcSize=20;whiteSpace=wrap;overflow=block;blockSpacing=1;html=1;fontSize=15;spacing=0;strokeColor=#5e5e5e;strokeOpacity=100;fillOpacity=100;fillColor=#ffffff;strokeWidth=2.3;" parent="1" vertex="1">
          <mxGeometry x="233" y="155" width="146" height="30" as="geometry" />
        </mxCell>
      </root>
    </mxGraphModel>
  </diagram>
</mxfile>
